<?xml version="1.0" encoding="UTF-8" standalone="no"?>
<!-- Created with Inkscape (http://www.inkscape.org/) -->

<svg
   width="1080"
   height="1080"
   viewBox="0 0 285.75001 285.75"
   version="1.1"
   id="svg1"
   inkscape:version="1.3 (0e150ed6c4, 2023-07-21)"
   sodipodi:docname="text1 square.svg"
   xmlns:inkscape="http://www.inkscape.org/namespaces/inkscape"
   xmlns:sodipodi="http://sodipodi.sourceforge.net/DTD/sodipodi-0.dtd"
   xmlns="http://www.w3.org/2000/svg"
   xmlns:svg="http://www.w3.org/2000/svg"
   xmlns:rdf="http://www.w3.org/1999/02/22-rdf-syntax-ns#"
   xmlns:cc="http://creativecommons.org/ns#"
   xmlns:dc="http://purl.org/dc/elements/1.1/">
  <sodipodi:namedview
     id="namedview1"
     pagecolor="#ffffff"
     bordercolor="#000000"
     borderopacity="0.25"
     inkscape:showpageshadow="2"
     inkscape:pageopacity="0.0"
     inkscape:pagecheckerboard="0"
     inkscape:deskcolor="#d1d1d1"
     inkscape:document-units="mm"
     inkscape:zoom="0.25"
     inkscape:cx="312"
     inkscape:cy="872"
     inkscape:window-width="1920"
     inkscape:window-height="1056"
     inkscape:window-x="0"
     inkscape:window-y="0"
     inkscape:window-maximized="1"
     inkscape:current-layer="text2" />
  <defs
     id="defs1" />
  <g
     inkscape:label="Layer 1"
     inkscape:groupmode="layer"
     id="layer1"
     transform="translate(-41.125172,-48.519764)">
    <g
       id="text2"
       style="font-size:374.037px;line-height:39%;font-family:Cormorant;-inkscape-font-specification:Cormorant;letter-spacing:-33.8219px;fill:#ff0000;stroke-width:31.1696"
       aria-label="ow&#10;wo">
      <path
         style="line-height:39%;text-align:center;text-anchor:middle;fill:#000000"
         d="m 81.632953,195.50918 q -21.694145,0 -38.52581,-10.47304 Q 26.649516,174.18907 17.672628,156.2353 8.6957404,137.90748 8.6957404,116.58737 q 0,-24.3124 11.5951466,-41.144064 11.969184,-17.205702 30.296996,-25.434515 18.701849,-8.602851 37.777736,-8.602851 22.068181,0 38.525811,10.847073 16.45763,10.847072 25.06048,28.800848 8.97688,17.579738 8.97688,37.403699 0,23.19029 -10.84707,40.77003 -10.84707,17.2057 -29.17488,26.93066 -17.95378,9.35093 -39.273887,9.35093 z m 10.847073,-7.1067 q 20.572034,0 31.793144,-14.58745 11.22111,-14.58744 11.22111,-44.88443 0,-23.1903 -7.85478,-41.51811 Q 120.15876,69.084677 106.69343,58.985678 93.2281,48.512643 76.022398,48.512643 q -20.197997,0 -31.419107,14.587442 -10.847072,14.587443 -10.847072,41.892145 0,22.81625 7.480739,41.89214 7.48074,19.07589 20.946072,30.297 13.465331,11.22111 30.296996,11.22111 z M 389.6809,46.268421 q 1.12211,0 1.12211,2.244222 0,2.244222 -1.12211,2.244222 -8.97689,0 -15.70955,5.984592 -6.35863,5.984591 -12.71726,21.320108 L 314.49947,190.27266 q -0.37404,1.49615 -4.11441,1.49615 -3.74037,0 -4.11441,-1.49615 L 264.00447,99.381673 226.22674,190.27266 q -0.37404,1.49615 -4.11441,1.49615 -3.74037,0 -4.11441,-1.49615 L 165.63274,77.313491 Q 158.15201,61.2299 152.91549,55.993383 q -4.86248,-5.236518 -12.34322,-5.236518 -1.12211,0 -1.12211,-2.244222 0,-2.244222 1.12211,-2.244222 7.48074,0 11.59514,0.374037 l 14.21341,0.374037 22.44222,-0.374037 q 5.61055,-0.374037 16.08359,-0.374037 1.12211,0 1.12211,2.244222 0,2.244222 -1.12211,2.244222 -10.47304,0 -16.08359,2.244222 -5.61056,1.870185 -5.61056,6.732665 0,2.618259 1.49615,5.610555 l 45.63251,96.501543 29.54893,-71.441065 -5.9846,-13.091294 Q 246.42473,61.2299 241.56225,55.993383 q -4.86248,-5.236518 -11.96918,-5.236518 -0.74807,0 -0.74807,-2.244222 0,-2.244222 0.74807,-2.244222 7.48074,0 11.22111,0.374037 l 13.83937,0.374037 24.3124,-0.374037 q 5.23652,-0.374037 14.21341,-0.374037 1.12211,0 1.12211,2.244222 0,2.244222 -1.12211,2.244222 -21.32011,0 -21.32011,8.976887 0,2.618259 1.49615,5.610555 l 45.25847,97.249613 35.15948,-86.40254 q 2.61826,-5.610555 2.61826,-10.847073 0,-7.480739 -7.1067,-10.847072 -7.10671,-3.74037 -22.44222,-3.74037 -0.74808,0 -0.74808,-2.244222 0,-2.244222 0.74808,-2.244222 10.099,0 15.33551,0.374037 l 22.44222,0.374037 13.46533,-0.374037 q 3.74037,-0.374037 11.59515,-0.374037 z"
         id="path1" />
      <path
         style="line-height:39%;text-align:center;text-anchor:middle;fill:#000000"
         d="m 227.42809,192.14284 q 1.12211,0 1.12211,2.24422 0,2.24422 -1.12211,2.24422 -8.97688,0 -15.70955,5.9846 -6.35863,5.98459 -12.71726,21.3201 l -46.75462,112.2111 q -0.37404,1.49615 -4.11441,1.49615 -3.74037,0 -4.11441,-1.49615 l -42.26618,-90.89099 -37.777731,90.89099 q -0.374037,1.49615 -4.114407,1.49615 -3.740369,0 -4.114406,-1.49615 L 3.3799373,223.18791 q -7.4807397,-16.08359 -12.7172576,-21.32011 -4.8624807,-5.23652 -12.3432207,-5.23652 -1.122111,0 -1.122111,-2.24422 0,-2.24422 1.122111,-2.24422 7.48074,0 11.595147,0.37404 l 14.2134053,0.37403 22.4422197,-0.37403 q 5.610554,-0.37404 16.08359,-0.37404 1.122111,0 1.122111,2.24422 0,2.24422 -1.122111,2.24422 -10.473036,0 -16.08359,2.24423 -5.610555,1.87018 -5.610555,6.73266 0,2.61826 1.496148,5.61056 l 45.632512,96.50154 29.548922,-71.44106 -5.984592,-13.0913 q -7.480739,-16.08359 -12.34322,-21.32011 -4.862481,-5.23652 -11.969184,-5.23652 -0.748074,0 -0.748074,-2.24422 0,-2.24422 0.748074,-2.24422 7.48074,0 11.22111,0.37404 l 13.839368,0.37403 24.3124,-0.37403 q 5.23652,-0.37404 14.21341,-0.37404 1.12211,0 1.12211,2.24422 0,2.24422 -1.12211,2.24422 -21.32011,0 -21.32011,8.97689 0,2.61826 1.49615,5.61056 l 45.25848,97.24961 35.15947,-86.40254 q 2.61826,-5.61056 2.61826,-10.84707 0,-7.48074 -7.1067,-10.84708 -7.1067,-3.74037 -22.44222,-3.74037 -0.74808,0 -0.74808,-2.24422 0,-2.24422 0.74808,-2.24422 10.099,0 15.33552,0.37404 l 22.44221,0.37403 13.46534,-0.37403 q 3.74037,-0.37404 11.59514,-0.37404 z m 54.45065,149.24076 q -21.69414,0 -38.52581,-10.47304 -16.45763,-10.84707 -25.43451,-28.80085 -8.97689,-18.32781 -8.97689,-39.64792 0,-24.3124 11.59515,-41.14406 11.96918,-17.20571 30.29699,-25.43452 18.70185,-8.60285 37.77774,-8.60285 22.06818,0 38.52581,10.84707 16.45762,10.84708 25.06048,28.80085 8.97688,17.57974 8.97688,37.4037 0,23.19029 -10.84707,40.77003 -10.84707,17.2057 -29.17488,26.93066 -17.95378,9.35093 -39.27389,9.35093 z m 10.84707,-7.1067 q 20.57204,0 31.79315,-14.58745 11.22111,-14.58744 11.22111,-44.88444 0,-23.19029 -7.85478,-41.5181 -7.48074,-18.32781 -20.94607,-28.42681 -13.46533,-10.47304 -30.67103,-10.47304 -20.198,0 -31.41911,14.58745 -10.84707,14.58744 -10.84707,41.89214 0,22.81625 7.48074,41.89214 7.48074,19.07589 20.94607,30.297 13.46533,11.22111 30.29699,11.22111 z"
         id="path2" />
    </g>
  </g>
  <metadata
     id="metadata1">
    <rdf:RDF>
      <cc:Work
         rdf:about="">
        <dc:creator>
          <cc:Agent>
            <dc:title>effectivnayarabota1</dc:title>
          </cc:Agent>
        </dc:creator>
        <cc:license
           rdf:resource="http://artlibre.org/licence/lal" />
      </cc:Work>
      <cc:License
         rdf:about="http://artlibre.org/licence/lal">
        <cc:permits
           rdf:resource="http://creativecommons.org/ns#Reproduction" />
        <cc:permits
           rdf:resource="http://creativecommons.org/ns#Distribution" />
        <cc:permits
           rdf:resource="http://creativecommons.org/ns#DerivativeWorks" />
        <cc:requires
           rdf:resource="http://creativecommons.org/ns#ShareAlike" />
        <cc:requires
           rdf:resource="http://creativecommons.org/ns#Notice" />
        <cc:requires
           rdf:resource="http://creativecommons.org/ns#Attribution" />
      </cc:License>
    </rdf:RDF>
  </metadata>
</svg>
