<?xml version="1.0" encoding="utf-8"?>
<!-- Generator: Adobe Illustrator 17.0.0, SVG Export Plug-In . SVG Version: 6.00 Build 0)  -->
<!DOCTYPE svg PUBLIC "-//W3C//DTD SVG 1.1//EN" "http://www.w3.org/Graphics/SVG/1.1/DTD/svg11.dtd">
<svg version="1.1" xmlns="http://www.w3.org/2000/svg" xmlns:xlink="http://www.w3.org/1999/xlink" x="0px" y="0px" width="1080px"
	 height="1080px" viewBox="0 0 1080 1080" enable-background="new 0 0 1080 1080" xml:space="preserve">
<g id="oo">
	<g>
		<path fill="#FF0000" d="M317.173,543.792c-8.649-31.317-15.695-62.082-21.01-91.778c-3.806-0.462-7.638-0.779-11.489-0.953
			c5.542,31.554,13.008,64.296,22.277,97.633c0.582,0.285,1.166,0.566,1.735,0.864C311.264,547.132,314.141,545.252,317.173,543.792
			L317.173,543.792z"/>
		<path fill="#FF0000" d="M678.494,743.12c3.942,29.847,5.979,58.298,5.982,84.769c0.004,41.334-4.94,75.475-14.695,101.472
			c-9.743,25.962-23.82,42.408-41.842,48.88c-18.023,6.472-39.346,2.739-63.378-11.093c-24.065-13.852-49.599-37.047-75.89-68.941
			c-17.812-21.607-35.279-46.363-52.073-73.653l-5.228,12.71c15.755,25.04,32.07,47.884,48.688,68.042
			c47.041,57.064,92.211,87.166,129.805,87.166c7.609,0,14.908-1.233,21.85-3.726c41.233-14.808,63.935-71.934,63.926-160.858
			c-0.003-32.467-3.005-67.836-8.793-105.071L678.494,743.12z"/>
		<path fill="#FF0000" d="M284.181,328.762c0.007,25.783,1.946,53.456,5.685,82.455c-2.546,0.063-5.169,0.112-7.883,0.133
			c-0.258,0.007-1.821,0.007-3.341,0.007c-3.697-29.02-5.616-56.728-5.623-82.595c0-2.142,0.014-4.262,0.042-6.369
			c3.16,0.53,7.604,1.27,11.141,1.863C284.188,325.749,284.181,327.249,284.181,328.762z"/>
		<path fill="#FF0000" d="M276.745,271.35l10.61,4.667c-1.479,11.175-2.442,23.146-2.888,35.891
			c-0.544,0.167-1.109,0.328-1.772,0.523l-9.487,2.518C273.641,299.317,274.826,284.758,276.745,271.35z"/>
		<path fill="#FF0000" d="M296.236,218.11c1.046,2.588,2.114,5.225,3.146,7.855c-0.167,0.44-0.335,0.879-0.502,1.326
			c-3.893,10.373-7.018,22.044-9.369,34.942c-0.049,0.272-0.098,0.537-0.147,0.809c-0.251,1.374-0.488,2.762-0.712,4.165
			l-11.552,1.674c3.411-22.602,8.922-41.87,16.421-57.482C294.603,214.085,295.768,216.952,296.236,218.11z"/>
		<path fill="#FF0000" d="M556.054,354.357c-3.041-0.67-5.909-1.305-8.804-2.17c-1.374-0.412-2.721-0.872-4.025-1.388
			c-20.16-34.754-41.437-65.909-63.237-92.354c-20.635-25.03-40.795-44.702-60.153-58.695c-3.341-2.428-6.655-4.674-9.941-6.746
			c-1.939-1.228-3.872-2.393-5.797-3.502c-16.4-9.438-31.538-14.175-45.225-14.175c-6.369,0-12.424,1.025-18.151,3.083
			c-13.715,4.925-25.148,15.626-34.119,31.901c-0.781-1.151-4.723-5.637-7.701-8.936c9.976-16.637,22.734-27.973,38.047-33.47
			c22.149-7.952,47.932-3.09,75.828,13.757c3.251,1.953,6.522,4.081,9.829,6.369c21.144,14.622,43.355,35.842,65.999,63.314
			c24.179,29.334,47.715,64.346,69.822,103.544C557.637,354.706,556.849,354.531,556.054,354.357z"/>
		<path fill="#FF0000" d="M587.864,411.35h-12.403c-6.85-14.022-13.903-27.646-21.116-40.823c2.183-0.746,4.52-1.423,6.983-2.142
			c1.27-0.377,2.574-0.753,3.927-1.158C572.998,381.452,580.546,396.178,587.864,411.35z"/>
	</g>
	<g>
		<path fill="#0000FF" d="M776.855,505.187c-1.484,2.825-2.86,5.727-4.093,8.723c-0.841,2.043-1.78,4.327-2.734,6.645
			c1.917,6.151,3.769,12.287,5.566,18.407l11.639,0.016C783.977,527.766,780.508,516.493,776.855,505.187L776.855,505.187z"/>
		<path fill="#0000FF" d="M415.628,323.977c2.009,23.251,5.302,47.562,9.815,72.626c-5.42-5.295-10.206-12.264-14.845-21.27
			c-2.483-16.296-4.444-32.229-5.839-47.715C408.164,326.202,411.813,325.044,415.628,323.977z"/>
		<path fill="#0000FF" d="M742.241,411.35h-12.103c-34.901-82.839-76.91-155.689-121.032-209.208
			c-26.292-31.894-51.824-55.089-75.891-68.943c-16.393-9.438-31.531-14.175-45.225-14.175c-6.369,0-12.424,1.026-18.151,3.083
			c-18.019,6.474-32.096,22.916-41.842,48.88c-2.002,5.337-3.802,11.022-5.392,17.042c-1.012,3.774-1.932,7.68-2.769,11.72
			c-4.346,20.865-6.536,45.19-6.536,72.71c0.007,11.343,0.377,23.055,1.116,35.082c-3.969-0.746-7.715-1.556-11.315-2.455
			c-0.635-11.161-0.956-22.051-0.963-32.626c0-30.317,2.637-56.945,7.757-79.456c0.879-3.906,1.842-7.687,2.881-11.343
			c10.492-37.063,28.559-61.179,53.289-70.059c41.235-14.803,95.096,14.824,151.657,83.439
			C663.274,250.304,706.559,325.728,742.241,411.35z"/>
		<path fill="#0000FF" d="M786.504,578.802c17.664,69.585,27.085,135.77,27.092,192.785c0.004,41.334-4.94,75.475-14.695,101.472
			c-9.743,25.962-23.819,42.408-41.842,48.88c-18.023,6.471-39.347,2.739-63.378-11.093c-24.065-13.852-49.599-37.047-75.89-68.942
			c-6.14-7.447-12.238-15.272-18.282-23.443l-4.943,12.02c4.84,6.398,9.713,12.58,14.612,18.523
			c47.042,57.064,92.211,87.165,129.804,87.165c7.61,0,14.91-1.233,21.851-3.725c41.233-14.808,63.936-71.935,63.926-160.858
			c-0.006-57.206-9.313-123.415-26.789-192.982C794.717,578.647,790.633,578.713,786.504,578.802L786.504,578.802z"/>
	</g>
</g>
<g id="ww">
	<g>
		<path d="M565.884,575.586l-37.744,91.772l-2.916-7.143l-0.544-1.335c-2.075-5.086-2.066-10.784,0.024-15.864l29.387-71.445v-0.007
			l3.865-9.39l0.126,0.015C564.459,562.996,568.33,569.641,565.884,575.586"/>
		<path d="M681.116,534.173l36.043-87.641c3.021-7.346-2.38-15.407-10.322-15.407h-94.984
			C665.008,431.125,701.178,485,681.116,534.173"/>
		<path d="M732.158,443.94l5.274-12.815h-13.938C730.115,431.125,734.621,437.815,732.158,443.94"/>
		<path d="M744.868,529.744c-5.574,13.826,4.583,28.936,19.519,28.978l13.254,0.042c-4.904,0-9.724,0.537-14.384,1.57
			c-1.088,0.23-2.163,0.502-3.23,0.795c-0.398,0.112-0.802,0.223-1.2,0.342c-0.795,0.23-1.59,0.481-2.372,0.746
			c-0.391,0.133-0.788,0.265-1.179,0.405c-0.523,0.181-1.039,0.377-1.556,0.579c-0.439,0.16-0.879,0.335-1.318,0.516
			c-0.14,0.056-0.279,0.112-0.412,0.174c-0.412,0.167-0.809,0.342-1.214,0.516c-0.056,0.021-0.119,0.049-0.174,0.077
			c-0.467,0.209-0.935,0.425-1.402,0.649c-0.558,0.258-1.102,0.516-1.646,0.802c-0.384,0.188-0.76,0.384-1.13,0.586
			c-2.016,1.06-3.962,2.218-5.853,3.481c-10.792,7.213-19.491,17.558-24.639,30.108l-0.007,0.007l-28.273,68.741l-19.309,46.955
			l-6.941-17.021v-0.007l-16.958-41.57l-51.594,125.441l-8.88,21.591l-3.9,9.473l-15.41,37.475l-6.941-17.007l-42.421-103.99
			c-4.151-10.171-4.13-21.563,0.049-31.727l12.794-31.113l42.062,103.138c2.502,6.134,11.182,6.148,13.703,0.022l53.596-130.317
			l7.646-18.577c0.349-0.781,0.677-1.577,0.977-2.386c1.828-4.82,2.839-10.038,2.881-15.494
			c0.16-22.574-17.112-41.423-38.926-44.604c-2.651-0.384-4.702,2.295-3.69,4.779l14.796,36.282
			c-5.12-12.564-13.791-22.944-24.562-30.185c-1.883-1.27-3.83-2.435-5.839-3.502c-0.37-0.202-0.746-0.398-1.13-0.586
			c-0.544-0.286-1.088-0.551-1.646-0.809c-0.46-0.223-0.928-0.439-1.395-0.649c-0.056-0.028-0.119-0.056-0.174-0.077
			c-0.405-0.181-0.802-0.356-1.214-0.523c-0.133-0.063-0.272-0.119-0.412-0.174c-0.439-0.181-0.879-0.356-1.318-0.523
			c-0.516-0.202-1.032-0.398-1.556-0.579c-0.391-0.14-0.781-0.279-1.172-0.412c-0.781-0.265-1.577-0.516-2.372-0.753
			c-0.398-0.119-0.802-0.23-1.2-0.342c-1.067-0.3-2.142-0.572-3.23-0.809c-4.716-1.06-9.599-1.611-14.566-1.611h13.443
			c14.97,0,25.176-15.145,19.567-29.013l-3.802-9.327l-10.241,24.918c-2.393,5.825-8.064,9.627-14.363,9.627h-3.042l17.698-43.028
			c2.086-5.085,2.093-10.785,0.021-15.87l-14.105-34.566l-6.69-16.414c-3.418-8.385-11.58-13.868-20.635-13.868h74.601
			c-10.08,0-16.958,10.192-13.191,19.533c0.007,0.021,0.014,0.042,0.021,0.063l2.546,6.236l30.855,75.661
			c6.425,15.752,21.744,26.048,38.758,26.048h14.133l-14.698,35.738c-4.179,10.164-4.199,21.556-0.049,31.734l7.269,17.817
			c1.178,2.889,5.268,2.895,6.455,0.009l22.746-55.293v-0.007l10.987-26.725l1.346-3.272l39.519-96.086l0.049-0.126
			c1.144-2.832,1.674-5.72,1.674-8.532c0-12.047-9.724-22.797-22.839-22.797h129.376c-49.236,0-93.603,29.724-112.333,75.263
			C754.474,506.388,744.875,529.716,744.868,529.744"/>
		<path d="M514.924,666.802l-12.794,31.099l-5.86-14.377l-4.388-10.75l-7.088-17.384l-12.264,29.836h-0.007v0.007l-4.625,11.238
			l-41.13,100l-20.635,50.171l-6.697-16.407L321.46,639.059c-19.826-48.615-67.101-80.391-119.602-80.391h51.733
			c45.183,0,60.753,13.394,71.357,39.393c-10.603-25.999-11.029-39.393,19.002-39.393h14.656c-13.763,0-23.139,13.952-17.942,26.697
			l33.631,82.462l13.722,33.638v0.007l25.225,61.849c2.504,6.139,11.189,6.153,13.708,0.021l25.769-62.651v-0.007l4.36-10.596
			l8.441-20.523c9.815-23.865,4.876-51.308-12.78-70.129c-23.941-25.525-57.782-40.767-94.126-40.767h64.325
			c8.657,0,15.075-7.095,15.075-15.047c0-1.877-0.356-3.809-1.13-5.699c-13.205-32.257-35.507-58.933-63.208-77.551
			c-27.053-18.186-59.268-28.692-93.213-29.222c-0.153,0-0.307-0.007-0.453-0.007l86.342-0.007
			c42.894,0.272,57.537,31.217,58.82,34.133c-13.401-33.15,13.464-34.112,15.033-34.14h0.07h30.799
			c-18.528,0.049-31.203,18.619-24.667,35.828c0.077,0.202,0.16,0.412,0.244,0.621l26.829,65.783
			c3.118,7.653,8.406,13.98,14.97,18.396c6.571,4.416,14.419,6.913,22.686,6.913c-13.017,0-21.89,13.15-17.049,25.204l0.028,0.063
			l9.99,24.499l10.868,26.634C519.124,645.246,519.102,656.638,514.924,666.802"/>
	</g>
</g>
<g id="stars">
	<path d="M555.487,419.558c-2.35-5.987-4.829-11.991-7.012-17.958c-1.976-5.399-3.881-10.807-5.371-16.126
		c-2.818-10.052-0.099-16.824,8.4-19.864c3.85-1.377,7.945-2.453,12.537-3.85c-2.343-0.477-3.999-0.774-5.676-1.164
		c-4.23-0.983-8.438-1.784-12.712-3.061c-10.414-3.11-19.604-9.077-26.56-18.116c-5.348-6.95-10.064-14.101-14.912-21.192
		c-2.176-3.184-7.205-11.243-8.335-11.974c2.539,6.512,5.238,13.044,7.565,19.528c1.724,4.806,3.255,9.616,4.359,14.308
		c2.006,8.522-0.268,14.654-6.932,17.935c-3.429,1.688-12.891,5.587-12.891,5.587s5.081,0.825,7.624,1.244
		c18.528,3.054,28.753,9.602,40.639,26.453C541.397,398.662,555.29,419.568,555.487,419.558"/>
	<path d="M410.391,263.54c3.59,0.633,6.266,1.064,8.968,1.591c9.476,1.847,17.506,6.909,23.577,15.428
		c4.101,5.754,13.343,19.865,14.921,21.072c-1.436-3.695-2.947-7.4-4.289-11.083c-1.327-3.644-2.595-7.286-3.688-10.894
		c-2.38-7.853-0.068-12.802,6.645-14.926c2.224-0.704,4.509-1.33,7.249-2.133c-1.471-0.477-16.568-4.378-21.353-7.336
		c-5.65-3.493-10.277-8.529-15.279-16.073c-3.367-5.078-6.536-10.192-10.368-15.347c1.783,4.738,3.611,9.482,5.33,14.212
		c0.9,2.478,1.719,4.954,2.384,7.392c2.044,7.5,0.101,12.6-6.073,15.073C415.984,261.488,413.482,262.378,410.391,263.54"/>
	<path d="M445.573,388.014c1.342,3.549,2.723,7.103,4.007,10.645c0.527,1.45,0.907,2.889,1.249,4.31
		c1.147,4.76-0.19,8.038-3.914,9.812c-1.669,0.795-3.491,1.418-5.792,2.337c1.528,0.467,2.554,0.913,3.469,1.041
		c8.442,1.177,15.339,5.439,20.522,13.337c2.001,3.048,4.059,6.086,6.106,9.126c0.947,1.406,1.927,2.806,3.476,4.178
		c-1.309-3.391-2.665-6.788-3.909-10.172c-0.749-2.038-1.419-4.073-1.957-6.075c-1.394-5.186,0.238-8.513,4.49-10.137
		c1.53-0.585,3.191-1.009,5.747-1.802c-2.417-0.639-3.759-1.061-5.06-1.327c-8.135-1.66-14.707-6.058-19.664-13.412
		c-2.67-3.961-5.381-7.913-8.073-11.869C446.039,388.01,445.806,388.012,445.573,388.014"/>
	<path d="M485.204,210.221c-1.771-0.52-3.385-1.018-4.988-1.461c-5.215-1.44-9.538-4.468-12.797-8.985
		c-2.892-4.01-5.553-8.076-9.083-13.24c0.774,2.427,1.171,3.855,1.707,5.3c0.541,1.457,1.245,2.933,1.833,4.396
		c2.867,7.148,2.154,12.23-4.568,13.851c-0.323,0.078-0.469,0.402-1.048,0.934c1.437,0.363,2.347,0.649,3.216,0.802
		c6.167,1.09,11.108,4.536,14.931,9.988c1.817,2.591,3.456,5.221,5.209,7.827c1.029,1.53,2.123,3.047,3.651,4.486
		c-1.286-3.325-2.474-6.642-3.878-9.976c-3.025-7.183-1.885-11.83,4.83-13.19c0.262-0.053,0.492-0.156,0.712-0.263
		C485.014,210.648,485.031,210.528,485.204,210.221"/>
	<path d="M371.13,401.321c-13.081-4.447-11.947-3.815-22.724-19.044c0.476,1.75,0.588,2.847,1.106,3.957
		c3.658,7.849,4.011,13.86-4.009,15.616c1.18,0.31,2.388,0.711,3.536,0.913c5.344,0.942,9.415,4.115,12.647,8.679
		c1.979,2.794,3.83,5.617,6.451,8.435c-0.23-0.769-0.422-1.533-0.695-2.307c-0.767-2.177-1.577-4.361-2.35-6.539
		c-1.619-4.564-0.412-7.416,3.392-8.697C369.267,402.071,370.008,401.754,371.13,401.321"/>
	<path d="M240.24,235.57c0,0,7.939,2.291,10.408,4.003c2.649,1.837,4.896,4.365,6.84,7.441c1.469,2.324,5.333,7.974,5.333,7.974
		s-2.062-7.348-2.892-9.542c-1.962-5.186-0.495-8.23,3.979-9.411c0.635-0.168,1.242-0.376,2.751-0.837
		c-2.467-0.682-3.95-1.083-5.436-1.505c-4.248-1.203-7.964-3.484-10.759-7.274c-2.322-3.148-7.115-10.018-7.115-10.018
		s1.6,5.667,2.165,7.133c1.215,3.152,1.509,5.77,0.661,7.728C245.492,232.84,240.546,235.192,240.24,235.57"/>
	<path d="M442.791,347.998c1.282,0.464,1.917,0.789,2.478,0.881c5.967,0.977,10.307,4.546,13.704,9.678
		c1.801,2.722,3.618,5.442,6.114,8.252c-0.315-1.018-0.585-2.029-0.956-3.053c-0.579-1.598-1.201-3.203-1.849-4.809
		c-2.336-5.789-1.316-9.554,4.026-10.742c0.343-0.076,0.57-0.317,0.904-0.512c-12.609-4.805-12.643-4.836-22.349-19.269
		c0.527,1.568,1.046,3.134,1.581,4.702c0.642,1.881,1.362,3.775,1.935,5.644c1.212,3.954,0.11,6.537-3.02,7.893
		C444.615,346.987,443.946,347.394,442.791,347.998"/>
	<path d="M349.055,216.67c-3.277-0.479-5.883-1.636-8.095-3.228c-3.472-2.499-8.574-9.765-8.574-9.765s2.271,7.726,1.873,9.259
		c-0.397,1.533-1.816,2.543-4.546,4.083c2.474,0.938,4.885,1.387,6.805,2.703c2.186,1.498,4.116,3.699,5.82,5.729
		c1.615,1.925,4.811,7.002,4.811,7.002s-3.441-10.616-2.685-12.572C345.064,218.332,346.508,217.224,349.055,216.67"/>
	<path d="M388.272,259.143c-6.48-1.355-8.755-6.236-12.225-10.323c1.415,4.268,3.821,8.94-0.98,10.16
		c2.403,1.512,4.961,2.697,6.85,4.428c1.962,1.798,3.275,4.125,5.187,6.278C385.711,265.366,383.342,260.676,388.272,259.143"/>
	<path d="M534.355,290.722c-0.879-4.013-3.526-8.769,2.165-10.369c-7.547-1.683-9.858-6.486-13.547-11.746
		c1.976,5.508,4.253,10.321-0.748,11.934C528.478,283.234,528.12,281.983,534.355,290.722"/>
	<path d="M292.676,272.262c7.261,3.196,7.261,3.196,13.224,11.86c-1.161-4.737-4.655-10.188,1.958-11.612
		c-7.042-1.313-9.895-5.512-13.003-10.622C295.174,266.176,298.784,271.378,292.676,272.262"/>
	<path d="M282.666,318.261c9.685,1.745,18.486,3.289,27.322,4.952c2.404,0.452,4.903,1.217,7.372,1.915
		c17.824,5.042,33.177,15.015,46.061,30.15c8.461,9.94,15.579,20.205,22.292,30.566c7.37,11.374,25.526,38.696,25.526,38.696
		s-7.703-18.777-11.148-28.116c-4.363-11.829-8.333-23.612-12.387-35.402c-0.646-1.879-0.845-3.696-1.239-5.539
		c-3.408-15.944,1.616-26.522,14.386-32.263c7.795-3.505,16.692-5.512,25.63-7.839c-1.482-0.301-2.986-0.67-4.442-0.892
		c-10.202-1.553-20.522-3.653-31.181-7.098c-18.372-5.937-34.029-16.582-47.152-32.059c-8.321-9.812-15.367-19.923-21.894-30.151
		c-6.521-10.221-22.91-35.408-22.91-35.408s5.461,13.364,7.92,20.013c4.646,12.565,9.093,25.106,13.611,37.656
		c0.262,0.728,0.405,1.44,0.617,2.161c6.308,21.494,0.298,35.413-17.402,42.031c-5.496,2.055-11.365,3.655-17.069,5.458
		C285.488,317.436,284.375,317.751,282.666,318.261"/>
</g>
</svg>
